<svg width="63" height="59" viewBox="0 0 63 59" fill="none" xmlns="http://www.w3.org/2000/svg">
<path d="M12.8709 21.1111C13.3139 20.2354 13.8307 19.4057 14.4213 18.599L14.3229 12.6068C14.3229 12.0537 14.569 11.5236 15.0365 11.1549C17.3252 9.35724 19.9338 7.90529 22.8131 6.93732C23.3791 6.75294 23.9943 6.79904 24.4865 7.09865L29.9744 10.1869C31.008 10.1178 32.0416 10.1178 33.0752 10.1869L38.5631 7.09865C39.0799 6.82208 39.6951 6.75294 40.2611 6.93732C43.0666 7.88224 45.6998 9.2881 48.0377 11.1318C48.4807 11.4776 48.7514 12.0307 48.7268 12.5838L48.6283 18.576C49.219 19.3826 49.7357 20.2123 50.1787 21.0881L55.765 23.992C56.2818 24.2686 56.651 24.7295 56.7494 25.2826C57.2662 28.0252 57.2908 30.883 56.7494 33.6717C56.651 34.2248 56.2818 34.6858 55.765 34.9623L50.1787 37.8662C49.7357 38.742 49.219 39.5717 48.6283 40.3783L48.7268 46.3705C48.7268 46.9236 48.4807 47.4537 48.0131 47.8225C45.7244 49.6201 43.1158 51.0721 40.2365 52.04C39.6705 52.2244 39.0553 52.1783 38.5631 51.8787L33.0752 48.7904C32.0416 48.8596 31.008 48.8596 29.9744 48.7904L24.4865 51.8787C23.9697 52.1553 23.3545 52.2244 22.7885 52.04C19.983 51.0951 17.3498 49.6893 15.0119 47.8455C14.569 47.4998 14.2982 46.9467 14.3229 46.3936L14.4213 40.4014C13.8307 39.5947 13.3139 38.765 12.8709 37.8893L7.28458 34.9854C6.76778 34.7088 6.39864 34.2479 6.3002 33.6947C5.7834 30.9522 5.75879 28.0943 6.3002 25.3057C6.39864 24.7526 6.76778 24.2916 7.28458 24.0151L12.8709 21.1111Z" fill="#C4C4C4"/>
<path d="M31.5 40.5625C38.0239 40.5625 43.3125 35.6096 43.3125 29.5C43.3125 23.3903 38.0239 18.4375 31.5 18.4375C24.9761 18.4375 19.6875 23.3903 19.6875 29.5C19.6875 35.6096 24.9761 40.5625 31.5 40.5625Z" stroke="black" stroke-width="2" stroke-miterlimit="10" stroke-linecap="round" stroke-linejoin="round"/>
</svg>
