<svg width="75" height="75" viewBox="0 0 75 75" fill="none" xmlns="http://www.w3.org/2000/svg">
<path fill-rule="evenodd" clip-rule="evenodd" d="M75 37.5C75 58.2106 58.2106 75 37.5 75C16.7894 75 0 58.2106 0 37.5C0 16.7894 16.7894 0 37.5 0C58.2106 0 75 16.7894 75 37.5ZM25.1117 34.0648C21.3552 35.705 17.4955 37.3903 13.966 39.3344C12.1231 40.6838 14.5725 41.6383 16.8705 42.5336C17.2358 42.6759 17.5972 42.8167 17.937 42.9573C18.2198 43.0444 18.5073 43.1359 18.7987 43.2288C21.3545 44.043 24.2042 44.9509 26.6855 43.5852C30.7614 41.2438 34.6078 38.5369 38.4514 35.832C39.7106 34.9458 40.9695 34.0598 42.2361 33.187C42.2955 33.1491 42.3623 33.1056 42.4356 33.0583C43.5145 32.3587 45.9412 30.7858 45.0436 32.9533C42.9211 35.2745 40.6475 37.3292 38.3617 39.3953C36.8211 40.7877 35.2748 42.1852 33.7655 43.6727C32.4509 44.7408 31.0858 46.8887 32.5578 48.3845C35.9483 50.758 39.3917 53.0739 42.8331 55.3886C43.953 56.1417 45.0728 56.8948 46.1903 57.6498C48.0844 59.162 51.0445 57.9388 51.4609 55.5758C51.6461 54.4888 51.832 53.4019 52.018 52.3148C53.0455 46.3075 54.0733 40.298 54.9813 34.2711C55.1047 33.3256 55.2445 32.3803 55.3845 31.4345C55.7237 29.1422 56.0634 26.847 56.1695 24.5423C55.8961 22.2423 53.1073 22.7481 51.5555 23.2653C43.5786 26.3006 35.6814 29.5609 27.8155 32.8787C26.9244 33.2734 26.0211 33.6678 25.1117 34.0648Z" fill="white"/>
</svg>
