<svg width="75" height="75" viewBox="0 0 75 75" fill="none" xmlns="http://www.w3.org/2000/svg">
<path fill-rule="evenodd" clip-rule="evenodd" d="M0 37.5C0 16.7893 16.7893 0 37.5 0C58.2107 0 75 16.7893 75 37.5C75 58.2107 58.2107 75 37.5 75C16.7893 75 0 58.2107 0 37.5ZM39.4618 49.8062C39.4618 49.8062 40.1837 49.7275 40.5535 49.3377C40.8919 48.9805 40.8802 48.3064 40.8802 48.3064C40.8802 48.3064 40.8352 45.1589 42.324 44.6941C43.7913 44.2371 45.6753 47.738 47.6748 49.0842C49.1851 50.102 50.3316 49.8792 50.3316 49.8792L55.6745 49.8062C55.6745 49.8062 58.4682 49.6372 57.1437 47.4806C57.0342 47.304 56.371 45.8848 53.1723 42.9696C49.8209 39.9181 50.2709 40.4117 54.305 35.1325C56.7622 31.9177 57.7444 29.9551 57.4372 29.1159C57.1457 28.3132 55.338 28.5263 55.338 28.5263L49.324 28.5628C49.324 28.5628 48.878 28.5033 48.5473 28.6972C48.2245 28.8874 48.0152 29.331 48.0152 29.331C48.0152 29.331 47.0644 31.8179 45.7947 33.9342C43.1163 38.3972 42.0462 38.6334 41.608 38.3568C40.5887 37.7097 40.843 35.7605 40.843 34.3758C40.843 30.0492 41.5121 28.2459 39.542 27.7793C38.8886 27.6237 38.4073 27.522 36.7346 27.5047C34.5884 27.4835 32.7729 27.5124 31.7438 28.0059C31.059 28.3343 30.5308 29.0679 30.8536 29.1101C31.2508 29.162 32.1507 29.3482 32.6281 29.9858C33.2444 30.8097 33.2228 32.6571 33.2228 32.6571C33.2228 32.6571 33.5769 37.75 32.3953 38.3818C31.5853 38.8158 30.4741 37.9305 28.0853 33.8804C26.8626 31.8064 25.9391 29.5134 25.9391 29.5134C25.9391 29.5134 25.7611 29.0852 25.4422 28.8547C25.0568 28.5762 24.5188 28.4898 24.5188 28.4898L18.8042 28.5263C18.8042 28.5263 17.9453 28.5494 17.6303 28.9162C17.3505 29.2407 17.6088 29.9148 17.6088 29.9148C17.6088 29.9148 22.0831 40.1908 27.1502 45.3701C31.7966 50.1173 37.0711 49.8062 37.0711 49.8062H39.4618Z" fill="#EEDCE7"/>
</svg>
